<mxfile host="app.diagrams.net" modified="2023-12-21T18:31:59.387Z" agent="Mozilla/5.0 (Windows NT 10.0; Win64; x64) AppleWebKit/537.36 (KHTML, like Gecko) Chrome/120.0.0.0 Safari/537.36" version="22.1.11" etag="kSjSweIZmP1sBGcI62W-" type="github">
  <diagram name="Page-1" id="OvwgAydtFMDjc4zr5ukF">
    <mxGraphModel>
      <root>
        <mxCell id="0" />
        <mxCell id="1" parent="0" />
      </root>
    </mxGraphModel>
  </diagram>
</mxfile>
